<?xml version="1.0" encoding="utf-8"?>
<!-- Generator: Adobe Illustrator 24.0.0, SVG Export Plug-In . SVG Version: 6.00 Build 0)  -->
<svg version="1.1" id="Capa_1" xmlns="http://www.w3.org/2000/svg" xmlns:xlink="http://www.w3.org/1999/xlink" x="0px" y="0px"
	 viewBox="0 0 200 200" style="enable-background:new 0 0 200 200;" xml:space="preserve">
<g>
	<g>
		<path d="M99.9,9c49-0.1,89.6,40.2,89.7,89c0.1,50.5-40.1,90.9-90.8,90.3c-48.3-0.6-88.4-39.1-88.4-89.7C10.4,47.5,51.9,8.9,99.9,9
			z M100.2,13.2c-47.6-0.1-85.7,37.6-85.9,85c-0.2,47.4,37.9,85.9,85,86c47.7,0.1,86.2-37.9,86.2-85.4
			C185.5,50.6,146.2,12.5,100.2,13.2z"/>
		<path d="M99.3,107.2c0-4-0.1-8.1,0-12.1c0.5-12.5,7.6-20.4,19.9-22.4c13.4-2.2,23.9,1.8,29.3,10.9c2.8,4.8,2.8,10.2,3.2,15.5
			c0.5,7.1,0.1,14.2,0.1,21.3c0,3.4-1.3,5-4.8,5.1c-3.6,0-5.3-1.3-5.2-5.1c0.1-7.3,0.1-14.5,0-21.8c-0.3-14.1-14.4-21.6-26.5-14
			c-4.4,2.7-5.9,7.1-6,12c-0.1,7.6-0.1,15.2-0.1,22.7c0,3.3-0.2,6.1-4.7,6.2c-4.5,0.1-5.4-2.3-5.3-6.1
			C99.4,115.3,99.3,111.3,99.3,107.2C99.3,107.2,99.3,107.2,99.3,107.2z"/>
		<path d="M75.7,72.1c3.7,0,7.4,0.1,11.1,0c3.8-0.2,5.1,1.6,5.1,5.2c0,3.6-1.5,4.9-4.9,4.8c-6.9-0.1-13.9-0.1-20.8,0.1
			c-13.7,0.3-20.7,11.2-15.8,24c1.9,5,5.7,7.6,10.8,8.5c8.2,1.4,16.4,0.5,24.6,0.6c3.7,0.1,6.1,0.6,6.1,5.2c0,4.4-2.5,5-5.9,4.9
			c-8.2-0.2-16.4,0.4-24.6-0.6c-13.1-1.6-19.5-7.6-21.5-20.8c-0.3-1.7-0.4-3.5-0.5-5.3C39.3,82.2,48,72.9,64.6,72.1
			C68.3,72,72,72.1,75.7,72.1C75.7,72.1,75.7,72.1,75.7,72.1z"/>
	</g>
</g>
</svg>
