<svg id="Capa_1" data-name="Capa 1" xmlns="http://www.w3.org/2000/svg" viewBox="0 0 2896.26 889.07"><title>LOGOTIPO</title><path d="M496.77,75.3C740,74.81,941.28,274.52,941.53,516.58c.25,250.3-198.76,450.79-450.38,447.75-239.64-2.9-438.61-193.89-438.45-445C52.87,266,259,74.58,496.77,75.3Zm1.77,20.87c-236-.66-425,186.36-426,421.41S260.44,943.78,494,944.29c236.67.51,427.27-188.08,427.36-423.46C921.45,281.84,726.52,92.77,498.54,96.17Z" transform="translate(-52.7 -75.29)"/><path d="M494.15,562.47c0-20-.69-40,.13-59.94,2.56-62.17,37.47-101.09,98.85-111.09,66.28-10.8,118.6,8.93,145.14,53.94,14.09,23.91,14.08,50.78,15.74,76.71,2.24,35,.3,70.31.72,105.48.2,16.76-6.24,25-23.9,25.1-18,.09-26.38-6.64-26-25.44q1-53.93,0-107.9c-1.42-70.07-71.26-106.94-131.62-69.42-21.63,13.44-29.44,35.21-29.8,59.6-.56,37.56-.46,75.13-.36,112.7,0,16.34-.78,30.27-23.26,30.6S493,641.18,493.7,622.42c.76-20,.17-40,.17-59.95Z" transform="translate(-52.7 -75.29)"/><path d="M377,388c18.37,0,36.78.7,55.11-.19,18.92-.91,25.25,7.73,25.32,25.77.06,17.76-7.45,24.1-24.54,23.83-34.34-.52-68.71-.53-103,.26C262.05,439.27,227,493,251.6,556.87c9.54,24.7,28.19,37.88,53.67,42.37,40.47,7.13,81.3,2.4,122,3.07,18.57.3,30.42,3,30.36,25.76-.06,22-12.35,24.88-29.33,24.46-40.68-1-81.37,1.9-122-3.08-64.77-7.94-96.74-37.9-106.85-103a182.65,182.65,0,0,1-2.29-26.2c-.84-82.2,42.68-128.31,124.83-132,18.33-.81,36.74-.12,55.11-.12Z" transform="translate(-52.7 -75.29)"/><path d="M1204.2,449.4l-17.46,13.39a95.5,95.5,0,0,0-34.7-28.52,101.55,101.55,0,0,0-44.48-9.71,98.3,98.3,0,0,0-49.07,12.72,91.33,91.33,0,0,0-35,34.17q-12.42,21.45-12.42,48.24,0,40.5,27.78,67.59t70.07,27.1q46.5,0,77.82-36.43l17.46,13.24a111.51,111.51,0,0,1-41.32,32.59q-24.77,11.52-55.32,11.52-58.11,0-91.67-38.69Q987.74,564,987.74,517.74q0-48.63,34.1-81.82t85.42-33.19q31,0,56,12.27A108.71,108.71,0,0,1,1204.2,449.4Z" transform="translate(-52.7 -75.29)"/><path d="M1339.07,408.3l103.26,221.43h-23.9l-34.82-72.86h-95.39l-34.5,72.86H1229L1333.65,408.3Zm-2.79,47.05-37.94,80.15H1374Z" transform="translate(-52.7 -75.29)"/><path d="M1453.77,588.48l18.82-11.29q19.88,36.59,45.91,36.58a44,44,0,0,0,20.92-5.19,36.75,36.75,0,0,0,14.91-13.92,36.06,36.06,0,0,0,5.12-18.52q0-11.13-7.53-21.83-10.39-14.74-37.93-35.52-27.71-20.92-34.47-30.26-11.74-15.64-11.75-33.87a51.37,51.37,0,0,1,6.93-26.34,49.4,49.4,0,0,1,19.49-18.74,56.26,56.26,0,0,1,27.32-6.85,58.31,58.31,0,0,1,29.28,7.75q13.62,7.75,28.83,28.53l-18.07,13.7q-12.49-16.56-21.3-21.83a36.73,36.73,0,0,0-19.19-5.27q-13.39,0-21.9,8.13a26.62,26.62,0,0,0-8.51,20,34.24,34.24,0,0,0,3,14q3,6.78,11,14.75,4.36,4.22,28.6,22.13,28.76,21.23,39.44,37.78t10.69,33.27q0,24.09-18.29,41.85t-44.48,17.76A65.3,65.3,0,0,1,1484,624.54Q1467.62,613.77,1453.77,588.48Z" transform="translate(-52.7 -75.29)"/><path d="M1720.66,408.3l103.26,221.43H1800l-34.82-72.86h-95.39l-34.5,72.86h-24.68L1715.24,408.3Zm-2.79,47.05-37.95,80.15h75.71Z" transform="translate(-52.7 -75.29)"/><path d="M1943.74,629.73V408.3h4.82L2095.93,578V408.3h21.82V629.73h-5L1966.62,462.06V629.73Z" transform="translate(-52.7 -75.29)"/><path d="M2172.39,408.3h22.13V542q0,23.79.91,29.66,1.65,13.1,7.67,21.9t18.52,14.75a58.06,58.06,0,0,0,25.13,5.94,49.66,49.66,0,0,0,21.08-4.66,46.94,46.94,0,0,0,16.86-12.95,52.8,52.8,0,0,0,9.93-20q2.27-8.43,2.26-34.62V408.3H2319V542q0,29.65-5.8,47.94T2290,621.75q-17.39,13.54-42.07,13.55-26.79,0-45.91-12.8t-25.59-33.87q-4.07-12.95-4.07-46.66Z" transform="translate(-52.7 -75.29)"/><path d="M2373.65,408.3h126.89V430H2395.78v69.39h103.86v21.68H2395.78v87h103.86v21.68h-126Z" transform="translate(-52.7 -75.29)"/><path d="M2521.92,408.3H2546l73.39,171.07L2694,408.3h24.09l-96.34,221.43h-4.82Z" transform="translate(-52.7 -75.29)"/><path d="M2845.71,408.3,2949,629.73h-23.9l-34.83-72.86h-95.39l-34.49,72.86h-24.69L2840.29,408.3Zm-2.8,47.05L2805,535.5h75.7Z" transform="translate(-52.7 -75.29)"/></svg>