<svg id="Capa_1" data-name="Capa 1" xmlns="http://www.w3.org/2000/svg" viewBox="0 0 888.82 889.07"><title>LOGO</title><path d="M499.24,55.2C742.47,54.71,943.75,254.43,944,496.48c.26,250.3-198.75,450.79-450.38,447.75C254,941.34,55,750.34,55.18,499.24,55.34,245.9,261.44,54.49,499.24,55.2ZM501,76.08c-235.95-.67-425,186.35-426,421.4S262.91,923.69,496.46,924.19c236.67.51,427.27-188.08,427.37-423.46C923.92,261.74,729,72.67,501,76.08Z" transform="translate(-55.18 -55.2)"/><path d="M496.62,542.37c0-20-.69-40,.13-59.94,2.56-62.16,37.48-101.09,98.85-111.09,66.28-10.8,118.6,8.93,145.14,53.94,14.1,23.91,14.08,50.78,15.74,76.71,2.25,35,.3,70.31.73,105.48.2,16.76-6.25,25-23.91,25.1-18,.1-26.38-6.64-26-25.43q1-53.94,0-107.91c-1.43-70.07-71.26-106.94-131.63-69.42C554,443.26,546.2,465,545.84,489.41c-.56,37.56-.45,75.14-.36,112.71,0,16.33-.78,30.26-23.26,30.59s-26.75-11.63-26-30.39c.75-20,.17-40,.17-60Z" transform="translate(-55.18 -55.2)"/><path d="M379.47,367.94c18.38,0,36.78.69,55.11-.2,18.92-.91,25.25,7.73,25.32,25.77.06,17.76-7.44,24.1-24.54,23.84-34.34-.53-68.71-.53-103,.26-67.8,1.56-102.88,55.33-78.25,119.16,9.54,24.71,28.2,37.88,53.67,42.37,40.48,7.13,81.3,2.4,122,3.07,18.58.3,30.42,3,30.36,25.76-.05,22-12.35,24.89-29.33,24.46-40.67-1-81.36,1.9-122-3.08-64.78-7.93-96.75-37.89-106.86-103a184.09,184.09,0,0,1-2.29-26.19c-.83-82.2,42.68-128.31,124.83-132,18.34-.82,36.74-.12,55.11-.12Z" transform="translate(-55.18 -55.2)"/></svg>