<?xml version="1.0" encoding="utf-8"?>
<!-- Generator: Adobe Illustrator 24.0.0, SVG Export Plug-In . SVG Version: 6.00 Build 0)  -->
<svg version="1.1" id="Capa_1" xmlns="http://www.w3.org/2000/svg" xmlns:xlink="http://www.w3.org/1999/xlink" x="0px" y="0px"
	 viewBox="0 0 1500 100" style="enable-background:new 0 0 1500 100;" xml:space="preserve">
<style type="text/css">
	.st0{fill:#304F4F;}
	.st1{fill:#F5F5F5;}
</style>
<rect class="st0" width="1500" height="100"/>
<g>
	<path class="st1" d="M432.9,67.8c0.8,0.9,1.2,1.8,1.2,2.8c0,1.1-0.4,2-1.2,2.8c-0.9,0.9-1.8,1.3-2.8,1.3c-1,0-1.9-0.4-2.9-1.3
		l-3.3-3.3c-5.4,3.6-11.6,5.4-18.7,5.4c-6.2,0-11.8-1.4-16.6-4.1c-4.9-2.7-8.6-6.6-11.3-11.5c-2.7-4.9-4-10.5-4-16.7
		c0-6.2,1.3-11.8,4-16.7c2.7-4.9,6.5-8.7,11.3-11.4c4.9-2.7,10.4-4.1,16.6-4.1c6.2,0,11.7,1.4,16.6,4.1c4.9,2.7,8.6,6.6,11.4,11.4
		c2.7,4.9,4.1,10.4,4.1,16.7c0,4.2-0.6,8.2-1.9,11.8c-1.3,3.7-3.1,6.9-5.4,9.7L432.9,67.8z M418,64.4l-7.7-7.7
		c-0.9-1-1.3-1.9-1.3-2.9c0-1,0.4-2,1.3-2.8c0.9-0.9,1.8-1.3,2.9-1.3c1.1,0,2,0.4,2.8,1.3l8,8.1c3.4-4.5,5.1-9.7,5.1-15.7
		c0-4.6-1-8.8-3.1-12.6c-2-3.8-4.9-6.7-8.5-8.9c-3.6-2.1-7.8-3.2-12.4-3.2c-4.6,0-8.7,1.1-12.4,3.2c-3.6,2.1-6.5,5.1-8.5,8.9
		c-2,3.8-3.1,8-3.1,12.6c0,4.6,1,8.8,3.1,12.6c2,3.8,4.9,6.7,8.5,8.9c3.7,2.2,7.8,3.3,12.3,3.3C410,68,414.3,66.8,418,64.4z"/>
	<path class="st1" d="M463,73.2c-4-1.9-7.1-4.6-9.3-7.9c-2.2-3.4-3.3-7.3-3.3-11.6V16c0-1.2,0.4-2.2,1.2-3c0.8-0.8,1.8-1.2,3-1.2
		c1.2,0,2.2,0.4,3,1.2c0.8,0.8,1.2,1.8,1.2,3v37.6c0,2.8,0.8,5.4,2.3,7.7c1.5,2.3,3.7,4,6.4,5.3c2.7,1.3,5.8,1.9,9.3,1.9
		c3.3,0,6.3-0.6,8.9-1.9c2.6-1.3,4.7-3,6.2-5.3c1.5-2.3,2.2-4.8,2.2-7.7V16c0-1.2,0.4-2.2,1.2-3c0.8-0.8,1.8-1.2,3-1.2
		c1.2,0,2.2,0.4,2.9,1.2c0.8,0.8,1.2,1.8,1.2,3v37.6c0,4.3-1.1,8.2-3.3,11.6c-2.2,3.4-5.2,6.1-9.1,8c-3.9,1.9-8.3,2.9-13.3,2.9
		C471.5,76,467,75.1,463,73.2z"/>
	<path class="st1" d="M519.6,73.5c-0.8-0.8-1.2-1.8-1.2-3V16c0-1.2,0.4-2.2,1.2-3c0.8-0.8,1.8-1.2,3-1.2c1.2,0,2.2,0.4,3,1.2
		c0.8,0.8,1.2,1.8,1.2,3v54.6c0,1.2-0.4,2.2-1.2,3c-0.8,0.8-1.8,1.2-3,1.2C521.4,74.8,520.4,74.4,519.6,73.5z"/>
	<path class="st1" d="M544.1,73.5c-0.8-0.8-1.2-1.8-1.2-3V16c0-1.2,0.4-2.2,1.2-3c0.8-0.8,1.8-1.2,3-1.2h36.4c1.2,0,2.2,0.4,3,1.1
		c0.8,0.7,1.1,1.7,1.1,2.9c0,1.1-0.4,2-1.1,2.7c-0.8,0.7-1.7,1-3,1h-32.2v19.6h23.1c1.2,0,2.2,0.4,2.9,1.1c0.8,0.7,1.2,1.7,1.2,2.8
		c0,1.1-0.4,2.1-1.2,2.8c-0.8,0.7-1.8,1.1-2.9,1.1h-23.1V67h32.2c1.2,0,2.2,0.4,3,1c0.8,0.7,1.1,1.6,1.1,2.7c0,1.2-0.4,2.1-1.1,2.9
		c-0.8,0.7-1.7,1.1-3,1.1h-36.4C545.9,74.8,544.9,74.4,544.1,73.5z"/>
	<path class="st1" d="M600.4,73.6c-0.8-0.8-1.2-1.8-1.2-3V16c0-1.2,0.4-2.2,1.2-3c0.8-0.8,1.8-1.2,2.9-1.2c0.6,0,1.2,0.1,1.8,0.4
		c0.6,0.3,1.1,0.7,1.5,1.1l35.1,46.7V16c0-1.2,0.4-2.2,1.2-3c0.8-0.8,1.8-1.2,3-1.2c1.2,0,2.2,0.4,2.9,1.2c0.8,0.8,1.2,1.8,1.2,3
		v54.6c0,1.2-0.4,2.2-1.2,3c-0.8,0.8-1.8,1.2-2.9,1.2c-0.6,0-1.2-0.1-1.8-0.4c-0.6-0.2-1.1-0.6-1.4-1.1l-35.1-46.7v44
		c0,1.2-0.4,2.2-1.2,3c-0.8,0.8-1.8,1.2-3,1.2C602.2,74.8,601.2,74.4,600.4,73.6z"/>
	<path class="st1" d="M667.4,73.5c-0.8-0.8-1.2-1.8-1.2-3V16c0-1.2,0.4-2.2,1.2-3c0.8-0.8,1.8-1.2,3-1.2h36.4c1.2,0,2.2,0.4,3,1.1
		c0.8,0.7,1.1,1.7,1.1,2.9c0,1.1-0.4,2-1.1,2.7c-0.8,0.7-1.7,1-3,1h-32.2v19.6h23.1c1.2,0,2.2,0.4,2.9,1.1c0.8,0.7,1.2,1.7,1.2,2.8
		c0,1.1-0.4,2.1-1.2,2.8c-0.8,0.7-1.8,1.1-2.9,1.1h-23.1V67h32.2c1.2,0,2.2,0.4,3,1c0.8,0.7,1.1,1.6,1.1,2.7c0,1.2-0.4,2.1-1.1,2.9
		c-0.8,0.7-1.7,1.1-3,1.1h-36.4C669.2,74.8,668.2,74.4,667.4,73.5z"/>
	<path class="st1" d="M728.3,72c-4.3-2.4-7.2-5.5-8.8-9.3c-0.3-0.6-0.4-1.2-0.4-1.6c0-0.8,0.3-1.5,0.9-2.1c0.6-0.6,1.4-1,2.4-1.2
		c0.2-0.1,0.4-0.1,0.8-0.1c0.9,0,1.7,0.3,2.5,0.8c0.8,0.5,1.4,1.2,1.7,2.1c1,2.1,2.9,3.9,5.7,5.3c2.8,1.5,6,2.2,9.4,2.2
		c4,0,7.4-0.9,10.2-2.8c2.8-1.9,4.2-4.4,4.2-7.6c0-3.1-1.2-5.7-3.5-7.9c-2.4-2.2-6-3.5-10.8-4c-6.7-0.6-11.9-2.6-15.7-5.8
		c-3.8-3.3-5.7-7.3-5.7-12.2c0-3.4,1-6.4,2.9-8.9c2-2.5,4.6-4.4,8.1-5.7c3.4-1.3,7.2-2,11.5-2c4.6,0,8.5,0.9,11.7,2.8
		c3.2,1.9,5.9,4.6,8.1,8.1c0.6,1,1,2,1,2.9c0,1.2-0.5,2.1-1.6,2.9c-0.6,0.4-1.3,0.6-2.1,0.6c-0.8,0-1.6-0.2-2.3-0.6
		c-0.7-0.4-1.2-1-1.6-1.7c-1.5-2.4-3.3-4.3-5.4-5.5c-2.2-1.3-4.9-1.9-8.3-1.9c-4.1,0-7.4,0.8-9.9,2.4c-2.5,1.6-3.8,3.9-3.8,6.9
		c0,2.8,1.1,5.1,3.4,7c2.3,1.9,6.3,3.1,12.1,3.7c6.4,0.6,11.4,2.6,15,5.8c3.5,3.3,5.3,7.5,5.3,12.9c0,3.9-1,7.2-3.1,10
		c-2.1,2.8-4.9,4.8-8.3,6.2c-3.5,1.4-7.2,2.1-11.2,2.1C737.3,75.6,732.6,74.4,728.3,72z"/>
	<path class="st1" d="M807.4,72c-4.3-2.4-7.2-5.5-8.8-9.3c-0.3-0.6-0.4-1.2-0.4-1.6c0-0.8,0.3-1.5,0.9-2.1c0.6-0.6,1.4-1,2.4-1.2
		c0.2-0.1,0.4-0.1,0.8-0.1c0.9,0,1.7,0.3,2.5,0.8c0.8,0.5,1.4,1.2,1.7,2.1c1,2.1,2.9,3.9,5.7,5.3c2.8,1.5,6,2.2,9.4,2.2
		c4,0,7.4-0.9,10.2-2.8c2.8-1.9,4.2-4.4,4.2-7.6c0-3.1-1.2-5.7-3.5-7.9c-2.4-2.2-6-3.5-10.8-4c-6.7-0.6-11.9-2.6-15.7-5.8
		c-3.8-3.3-5.7-7.3-5.7-12.2c0-3.4,1-6.4,2.9-8.9c2-2.5,4.6-4.4,8.1-5.7c3.4-1.3,7.2-2,11.5-2c4.6,0,8.5,0.9,11.7,2.8
		c3.2,1.9,5.9,4.6,8.1,8.1c0.6,1,1,2,1,2.9c0,1.2-0.5,2.1-1.6,2.9c-0.6,0.4-1.3,0.6-2.1,0.6s-1.6-0.2-2.3-0.6
		c-0.7-0.4-1.2-1-1.6-1.7c-1.5-2.4-3.3-4.3-5.4-5.5c-2.2-1.3-4.9-1.9-8.3-1.9c-4.1,0-7.4,0.8-9.9,2.4c-2.5,1.6-3.8,3.9-3.8,6.9
		c0,2.8,1.1,5.1,3.4,7c2.3,1.9,6.3,3.1,12.1,3.7c6.4,0.6,11.4,2.6,15,5.8c3.5,3.3,5.3,7.5,5.3,12.9c0,3.9-1,7.2-3.1,10
		c-2.1,2.8-4.9,4.8-8.3,6.2c-3.5,1.4-7.2,2.1-11.2,2.1C816.4,75.6,811.6,74.4,807.4,72z"/>
	<path class="st1" d="M869.5,71.5c-4.9-2.7-8.6-6.6-11.3-11.5c-2.7-4.9-4-10.5-4-16.7c0-6.2,1.3-11.8,4-16.7
		c2.7-4.9,6.5-8.7,11.3-11.4c4.9-2.7,10.4-4.1,16.6-4.1c6.2,0,11.7,1.4,16.6,4.1c4.9,2.7,8.6,6.6,11.4,11.4
		c2.7,4.9,4.1,10.4,4.1,16.7c0,6.2-1.4,11.8-4.1,16.7c-2.7,4.9-6.5,8.7-11.3,11.5c-4.8,2.7-10.4,4.1-16.6,4.1
		C879.9,75.6,874.4,74.2,869.5,71.5z M898.5,64.7c3.7-2.2,6.5-5.1,8.5-8.9c2-3.8,3.1-7.9,3.1-12.6c0-4.6-1-8.8-3.1-12.6
		c-2-3.8-4.9-6.7-8.5-8.9c-3.6-2.1-7.8-3.2-12.4-3.2s-8.7,1.1-12.4,3.2c-3.6,2.1-6.5,5.1-8.5,8.9c-2,3.8-3.1,8-3.1,12.6
		c0,4.6,1,8.8,3.1,12.6c2,3.8,4.9,6.7,8.5,8.9s7.8,3.3,12.3,3.3S894.8,66.9,898.5,64.7z"/>
	<path class="st1" d="M993.1,13c0.8,0.8,1.2,1.8,1.2,3v54.6c0,1.2-0.4,2.2-1.2,3c-0.8,0.8-1.8,1.2-2.9,1.2c-1.2,0-2.2-0.4-3-1.2
		s-1.2-1.8-1.2-3v-40l-19.5,39.7c-0.9,1.4-2.1,2.1-3.6,2.1c-1.8,0-3.1-0.8-3.9-2.5l-19.3-38.6v39.3c0,1.2-0.4,2.2-1.2,3
		s-1.8,1.2-3,1.2c-1.2,0-2.2-0.4-3-1.2c-0.8-0.8-1.2-1.8-1.2-3V16c0-1.2,0.4-2.2,1.2-3c0.8-0.8,1.8-1.2,3-1.2c1.6,0,2.8,0.8,3.7,2.3
		L963.1,62l23.3-47.9c0.9-1.5,2.1-2.3,3.7-2.3C991.3,11.8,992.3,12.2,993.1,13z"/>
	<path class="st1" d="M1022.9,71.5c-4.9-2.7-8.6-6.6-11.3-11.5c-2.7-4.9-4-10.5-4-16.7c0-6.2,1.3-11.8,4-16.7
		c2.7-4.9,6.5-8.7,11.3-11.4c4.9-2.7,10.4-4.1,16.6-4.1c6.2,0,11.7,1.4,16.6,4.1c4.9,2.7,8.6,6.6,11.4,11.4
		c2.7,4.9,4.1,10.4,4.1,16.7c0,6.2-1.4,11.8-4.1,16.7c-2.7,4.9-6.5,8.7-11.3,11.5c-4.8,2.7-10.4,4.1-16.6,4.1
		C1033.3,75.6,1027.7,74.2,1022.9,71.5z M1051.8,64.7c3.7-2.2,6.5-5.1,8.5-8.9c2-3.8,3.1-7.9,3.1-12.6c0-4.6-1-8.8-3.1-12.6
		c-2-3.8-4.9-6.7-8.5-8.9c-3.6-2.1-7.8-3.2-12.4-3.2s-8.7,1.1-12.4,3.2c-3.6,2.1-6.5,5.1-8.5,8.9c-2,3.8-3.1,8-3.1,12.6
		c0,4.6,1,8.8,3.1,12.6c2,3.8,4.9,6.7,8.5,8.9s7.8,3.3,12.3,3.3S1048.2,66.9,1051.8,64.7z"/>
	<path class="st1" d="M1090.4,72c-4.3-2.4-7.2-5.5-8.8-9.3c-0.3-0.6-0.4-1.2-0.4-1.6c0-0.8,0.3-1.5,0.9-2.1c0.6-0.6,1.4-1,2.4-1.2
		c0.2-0.1,0.4-0.1,0.8-0.1c0.9,0,1.7,0.3,2.5,0.8c0.8,0.5,1.4,1.2,1.7,2.1c1,2.1,2.9,3.9,5.7,5.3c2.8,1.5,6,2.2,9.4,2.2
		c4,0,7.4-0.9,10.2-2.8c2.8-1.9,4.2-4.4,4.2-7.6c0-3.1-1.2-5.7-3.5-7.9c-2.4-2.2-6-3.5-10.8-4c-6.7-0.6-11.9-2.6-15.7-5.8
		c-3.8-3.3-5.7-7.3-5.7-12.2c0-3.4,1-6.4,2.9-8.9c2-2.5,4.6-4.4,8.1-5.7c3.4-1.3,7.2-2,11.5-2c4.6,0,8.5,0.9,11.7,2.8
		c3.2,1.9,5.9,4.6,8.1,8.1c0.6,1,1,2,1,2.9c0,1.2-0.5,2.1-1.6,2.9c-0.6,0.4-1.3,0.6-2.1,0.6s-1.6-0.2-2.3-0.6
		c-0.7-0.4-1.2-1-1.6-1.7c-1.5-2.4-3.3-4.3-5.4-5.5c-2.2-1.3-4.9-1.9-8.3-1.9c-4.1,0-7.4,0.8-9.9,2.4c-2.5,1.6-3.8,3.9-3.8,6.9
		c0,2.8,1.1,5.1,3.4,7c2.3,1.9,6.3,3.1,12.1,3.7c6.4,0.6,11.4,2.6,15,5.8c3.5,3.3,5.3,7.5,5.3,12.9c0,3.9-1,7.2-3.1,10
		c-2.1,2.8-4.9,4.8-8.3,6.2c-3.5,1.4-7.2,2.1-11.2,2.1C1099.4,75.6,1094.6,74.4,1090.4,72z"/>
</g>
</svg>
