<svg id="Capa_1" data-name="Capa 1" xmlns="http://www.w3.org/2000/svg" viewBox="0 0 328.52 289.93"><defs><style>.cls-1{fill:#bf272f;}.cls-2{fill:#fdfcfc;}.cls-3{fill:#060202;}</style></defs><title>logo toka</title><path class="cls-1" d="M957.94,683.61H811.12c-11.21,0-14.92-3.73-14.92-14.91q0-130.52,0-261c0-9.11,4.53-13.75,13.73-13.75q148,0,296,0c3.57,0,7.91-.07,10.18,1.6,4.44,3.26,8.4,7.79,8.58,14.1,0,.91,0,1.83,0,2.74q0,126.42,0,252.83c0,8.65-3.71,14.4-11.12,17.49a20.59,20.59,0,0,1-8,1.17H957.94Zm153.67-144.26h0q0-61.26,0-122.51c0-7.5-3-10.45-10.41-10.45H910.08c-8.55,0-11.42,2.9-11.42,11.57V661c0,8.21,2.93,11.15,11,11.15h191.48c7.52,0,10.47-2.91,10.47-10.33Zm-287.1,29.79H820.2c-9.49,0-9.4,0-9.2,9.56,0,2.42.85,3.19,3.18,3.13,5.09-.12,10.18-.05,15.26-.05,5.45,0,5.42,0,4,5.1-4.41,15.79-12.41,29.2-25.81,39-1.89,1.38-1.68,2.12.17,3.28a21.86,21.86,0,0,1,5.54,4.26c2,2.45,3.38,1.76,5.38.13a74.75,74.75,0,0,0,17.71-20.69,102.83,102.83,0,0,0,10.86-28c.41-1.76.8-3.21,3.13-3.17,5.74.1,11.48,0,17.22,0,1.44,0,2.62.24,2.52,2.11-.65,11.46-1.26,22.91-4.66,34-.87,2.84-2.75,3.8-5.65,3.57a101.31,101.31,0,0,1-15.4-2.61c-1.71-.41-2.89-.45-2.31,1.9a24.36,24.36,0,0,1,.47,8.16c-.2,2.17.6,3.06,2.68,3.34,4,.53,8,1.34,12,1.79,12.13,1.37,18.11-2.6,21.33-14.34,2.53-9.22,3.2-18.73,4.2-28.2.65-6.16-.42-12.55,2.25-18.47a1.22,1.22,0,0,0-.79-1.86c-3.09-.82-5.78-2.55-9.33-2.33-7.41.46-14.86.2-22.29.28-1.81,0-2.35-1-2-2.48.94-3.83,0-7.91,2.63-11.57,2.32-3.21,1.1-4.9-2.91-5.3-2.73-.26-5.47-.39-8.18-.78-2.46-.37-3.49.28-3.54,3-.08,4.3-.74,8.58-.88,12.88-.11,3.22-1.17,4.74-4.68,4.35A77,77,0,0,0,824.51,569.14Zm11-89.3c7.37,3.58,13.88,6.82,20.46,9.92,2.89,1.36,6,5,8.42,3.84s3.59-5.46,5.54-8.21c1.7-2.4.47-3.28-1.53-4.36a331.25,331.25,0,0,0-30.6-14.33c-1.07-.45-2.39-.82-2.23-2.32.77-7-1.82-14.19,1.73-21,1.78-3.41.86-4.62-2.92-4.91-2.73-.21-5.49-.15-8.19-.55-3.16-.47-3.94.67-3.93,3.76.12,24.64.07,49.29.07,73.93,0,8.81,0,8.63,8.76,8.85,3.64.09,4.57-1,4.51-4.59C835.37,506.81,835.5,493.78,835.5,479.84Z" transform="translate(-796.19 -393.86)"/><path class="cls-2" d="M958.05,677H817.91c-10.7,0-14.24-3.57-14.24-14.23q0-124.59,0-249.18c0-8.69,4.32-13.12,13.11-13.12q141.27,0,282.53,0c3.41,0,7.55-.06,9.72,1.53,4.24,3.11,8,7.44,8.19,13.46,0,.87,0,1.74,0,2.61q0,120.68,0,241.33c0,8.26-3.54,13.75-10.62,16.7a19.64,19.64,0,0,1-7.68,1.11q-70.44,0-140.89,0Zm146.69-137.69h0q0-58.47,0-117c0-7.15-2.84-10-9.94-10H912.37c-8.16,0-10.9,2.76-10.9,11v232c0,7.84,2.79,10.65,10.5,10.65h182.77c7.18,0,10-2.78,10-9.86Zm-274,28.43h-4.11c-9.06,0-9,0-8.78,9.13.05,2.31.81,3,3,3,4.85-.12,9.71,0,14.56-.06,5.2,0,5.18,0,3.82,4.87C835,599.76,827.37,612.57,814.58,622c-1.8,1.32-1.6,2,.16,3.13a21,21,0,0,1,5.29,4.07c1.92,2.33,3.23,1.68,5.14.12a71.44,71.44,0,0,0,16.9-19.75,97.71,97.71,0,0,0,10.36-26.69c.4-1.68.77-3.06,3-3,5.47.09,11,0,16.43,0,1.38,0,2.51.23,2.41,2-.63,10.93-1.21,21.87-4.45,32.45-.83,2.7-2.63,3.62-5.39,3.4a96.16,96.16,0,0,1-14.71-2.49c-1.63-.39-2.75-.43-2.2,1.81a23.27,23.27,0,0,1,.45,7.8c-.19,2.06.58,2.92,2.55,3.18,3.83.51,7.61,1.28,11.44,1.71,11.58,1.31,17.29-2.48,20.37-13.69,2.41-8.8,3-17.88,4-26.91.62-5.89-.4-12,2.15-17.64a1.16,1.16,0,0,0-.76-1.77c-2.94-.79-5.52-2.44-8.9-2.23-7.07.44-14.18.2-21.28.27-1.73,0-2.23-.92-1.88-2.37.9-3.65,0-7.55,2.51-11,2.22-3.06,1.06-4.68-2.78-5.05-2.6-.26-5.22-.38-7.8-.76-2.35-.34-3.33.27-3.38,2.86-.08,4.09-.71,8.18-.85,12.28-.1,3.08-1.11,4.53-4.46,4.15A74.88,74.88,0,0,0,830.69,567.76Zm10.5-85.24c7,3.42,13.24,6.51,19.52,9.47,2.76,1.3,5.73,4.73,8,3.67s3.43-5.21,5.29-7.84c1.62-2.29.45-3.13-1.46-4.16A315.27,315.27,0,0,0,843.37,470c-1-.43-2.29-.78-2.13-2.22.74-6.66-1.74-13.54,1.65-20.06,1.7-3.27.82-4.41-2.78-4.69-2.61-.2-5.25-.14-7.82-.53-3-.45-3.77.64-3.75,3.59.11,23.52.06,47.05.06,70.57,0,8.41,0,8.24,8.36,8.44,3.48.09,4.36-1,4.31-4.38C841.06,508.27,841.19,495.83,841.19,482.52Z" transform="translate(-796.19 -393.86)"/><path class="cls-1" d="M1104.74,539.33V656.27c0,7.08-2.82,9.86-10,9.86H912c-7.71,0-10.49-2.81-10.5-10.65v-232c0-8.28,2.74-11,10.9-11h182.4c7.1,0,9.94,2.82,9.94,10q0,58.49,0,117Zm-6.61,64.36c0-14.07-.07-28.14.06-42.21,0-3.08-1-4.2-4.09-4.15-8.47.13-16.94-.06-25.41.1-3,.05-4.23-.63-4.22-3.89,0-10.42-.08-10.42-10.35-10.42-9.57,0-9.57,0-9.53,9.43,0,4.82,0,4.83-4.67,4.83h-31.39c-1.86,0-4-.25-4,2.56-.07,4.23-.07,8.46-.06,12.69,0,1.51.89,2.09,2.37,2.29,5.53.73,5.52.77,5.49,6.55a29,29,0,0,0,0,3.36c.44,3.46-.73,5.23-4.48,4.72-2.8-.38-3.74,1.07-3.64,3.73.13,3.48.18,7,0,10.45-.12,2.6.82,3.82,3.42,3.39,4.12-.69,4.9,1.28,4.85,5-.18,14.56,0,29.13-.12,43.7,0,2.91.93,4.08,3.87,3.89,2.73-.17,5.48,0,8.22,0,8.18-.08,7.46,1.13,7.49-7.7,0-13.69,0-27.39,0-41.08,0-1.88-.28-3.78,2.69-3.76,13.83.07,27.65,0,41.48,0,1.92,0,2.69.73,2.67,2.62-.07,8.46.11,16.94-.22,25.39-.21,5.38-2.2,6.9-7.59,7.07-2,.06-4,.12-6,.08-1.68,0-2.55.57-2.52,2.37.06,4.23.06,8.47,0,12.7,0,1.54.66,2.3,2.24,2.28,6.34-.08,12.73.29,19-.3,10.82-1,14.33-5.23,14.35-16.05C1098.14,630.08,1098.12,616.88,1098.13,603.69Zm-1.08-120.28h0c0-15.57-.12-31.14.08-46.71,0-3.87-1.2-4.89-4.92-4.78-8.34.25-16.7-.11-25,.13-3.65.11-5-.77-4.9-4.71.22-9.58,0-9.58-9.6-9.57-9.87,0-9.87,0-10,10a2.41,2.41,0,0,0,0,.38c.33,2.89-.91,3.93-3.85,3.89-8.72-.13-17.44.09-26.16-.07-3.13-.06-4,1-4,4.05q.15,47.08,0,94.17c0,3.31,1,4.27,4.26,4.26q40-.13,80,0c3.33,0,4.24-1.14,4.22-4.36C1097,514.55,1097.05,499,1097.05,483.41ZM909.88,608.5h0v46.33a6.26,6.26,0,0,1,0,.75c-.38,3,.85,4.28,4,4.13,4.22-.2,8.47-.13,12.7-.05,2.43.05,3.35-1,3.26-3.36-.1-2.86,0-5.73,0-8.59,0-12.33.05-24.66-.06-37,0-2.74.81-3.84,3.64-3.62s6,0,9,.13c15.56.56,25.79,10.68,26.38,26.27.27,7.34.28,14.7.2,22,0,3,.78,4.36,4,4.17a99.64,99.64,0,0,1,11.2,0c3.24.18,4.41-1,4.34-4.28-.18-8-.47-16,0-23.91,1.39-22.08-15.85-36.23-30.71-40.37C949.94,589,942,589.49,934,589.45c-3.33,0-4.6-.89-4.48-4.44.26-7.84,0-15.69.09-23.54,0-3-1-4.32-4.11-4.15a102.06,102.06,0,0,1-11.2,0c-3.43-.21-4.54,1-4.51,4.49C910,577.37,909.88,592.94,909.88,608.5ZM952.33,432c-13.33,0-26.65.06-40,0-2.82,0-4.15.72-3.93,3.78a80.65,80.65,0,0,1,0,9.71c-.15,3,.74,4.24,4,4.12,6.35-.25,12.7-.11,19.06-.11,10.62,0,10.48,0,10.57,10.58,0,3.44-1.3,4.21-4.4,4.16-8.47-.15-16.94,0-25.41-.11-3-.05-4,1-3.84,3.92a96.83,96.83,0,0,1,0,10.08c-.14,2.78,1,3.69,3.69,3.65,8.35-.13,16.69-.05,25-.06,4.73,0,4.8,0,4.8,4.78,0,14.69.09,29.38,0,44.08,0,2.88.86,4.05,3.84,3.89,3.48-.2,7,0,10.46,0,5.29,0,5.26,0,5.26-5.44,0-25.15,0-50.3-.08-75.45,0-3,.83-4.17,4-4.11,8.84.17,17.69-.12,26.53.15,3.59.11,4.6-1.18,4.39-4.47a65.2,65.2,0,0,1,0-8.95c.26-3.39-1.19-4.23-4.36-4.19C978.74,432.09,965.53,432,952.33,432Zm26.39,124.58c-1.49,0-1.85,1.18-2.42,2.08-4.29,6.84-8.5,13.72-12.84,20.53-1.15,1.79-1,2.78,1,3.72,4,1.92,8,4,12,6.05,1.92,1,3.15.61,4.3-1.21,4.26-6.71,8.61-13.36,12.93-20,1-1.51.91-2.69-.86-3.63-4.39-2.33-8.73-4.75-13.1-7.12A9.49,9.49,0,0,0,978.72,556.59Z" transform="translate(-796.19 -393.86)"/><path class="cls-1" d="M830.69,567.76a74.88,74.88,0,0,1,8.21.06c3.35.38,4.36-1.07,4.46-4.15.14-4.1.77-8.19.85-12.28,0-2.59,1-3.2,3.38-2.86,2.58.38,5.2.5,7.8.76,3.84.37,5,2,2.78,5.05-2.53,3.49-1.61,7.39-2.51,11-.35,1.45.15,2.39,1.88,2.37,7.1-.07,14.21.17,21.28-.27,3.38-.21,6,1.44,8.9,2.23a1.16,1.16,0,0,1,.76,1.77c-2.55,5.65-1.53,11.75-2.15,17.64-1,9-1.59,18.11-4,26.91-3.08,11.21-8.79,15-20.37,13.69-3.83-.43-7.61-1.2-11.44-1.71-2-.26-2.74-1.12-2.55-3.18a23.27,23.27,0,0,0-.45-7.8c-.55-2.24.57-2.2,2.2-1.81a96.16,96.16,0,0,0,14.71,2.49c2.76.22,4.56-.7,5.39-3.4,3.24-10.58,3.82-21.52,4.45-32.45.1-1.78-1-2-2.41-2-5.48,0-11,0-16.43,0-2.23,0-2.6,1.34-3,3a97.71,97.71,0,0,1-10.36,26.69,71.44,71.44,0,0,1-16.9,19.75c-1.91,1.56-3.22,2.21-5.14-.12a21,21,0,0,0-5.29-4.07c-1.76-1.1-2-1.81-.16-3.13,12.79-9.38,20.43-22.19,24.64-37.26,1.36-4.88,1.38-4.87-3.82-4.87-4.85,0-9.71-.06-14.56.06-2.23,0-3-.68-3-3-.2-9.15-.28-9.14,8.78-9.13Z" transform="translate(-796.19 -393.86)"/><path class="cls-1" d="M841.19,482.52c0,13.31-.13,25.75.08,38.18.05,3.4-.83,4.47-4.31,4.38-8.35-.2-8.36,0-8.36-8.44,0-23.52,0-47.05-.06-70.57,0-2.95.73-4,3.75-3.59,2.57.39,5.21.33,7.82.53,3.6.28,4.48,1.42,2.78,4.69-3.39,6.52-.91,13.4-1.65,20.06-.16,1.44,1.1,1.79,2.13,2.22a315.27,315.27,0,0,1,29.21,13.68c1.91,1,3.08,1.87,1.46,4.16-1.86,2.63-2.85,6.71-5.29,7.84s-5.28-2.37-8-3.67C854.43,489,848.22,485.94,841.19,482.52Z" transform="translate(-796.19 -393.86)"/><path class="cls-3" d="M1098.13,603.69c0,13.19,0,26.39,0,39.59,0,10.82-3.53,15-14.35,16.05-6.3.59-12.69.22-19,.3-1.58,0-2.24-.74-2.24-2.28,0-4.23,0-8.47,0-12.7,0-1.8.84-2.4,2.52-2.37,2,0,4,0,6-.08,5.39-.17,7.38-1.69,7.59-7.07.33-8.45.15-16.93.22-25.39,0-1.89-.75-2.63-2.67-2.62-13.83,0-27.65.08-41.48,0-3,0-2.69,1.88-2.69,3.76,0,13.69,0,27.39,0,41.08,0,8.83.69,7.62-7.49,7.7-2.74,0-5.49-.13-8.22,0-2.94.19-3.89-1-3.87-3.89.1-14.57-.06-29.14.12-43.7,0-3.72-.73-5.69-4.85-5-2.6.43-3.54-.79-3.42-3.39.17-3.47.12-7,0-10.45-.1-2.66.84-4.11,3.64-3.73,3.75.51,4.92-1.26,4.48-4.72a29,29,0,0,1,0-3.36c0-5.78,0-5.82-5.49-6.55-1.48-.2-2.36-.78-2.37-2.29,0-4.23,0-8.46.06-12.69,0-2.81,2.18-2.55,4-2.56h31.39c4.69,0,4.69,0,4.67-4.83,0-9.44,0-9.44,9.53-9.43,10.27,0,10.39,0,10.35,10.42,0,3.26,1.27,3.94,4.22,3.89,8.47-.16,16.94,0,25.41-.1,3.08-.05,4.11,1.07,4.09,4.15C1098.06,575.55,1098.13,589.62,1098.13,603.69ZM1055.74,575v0c-6.73,0-13.45.08-20.18,0-2.49-.05-3.71.6-3.54,3.32a70.71,70.71,0,0,1,0,7.84c-.1,2.34.73,3.38,3.21,3.37,13.45-.06,26.89,0,40.34,0,2.14,0,3.28-.72,3.22-3-.06-2.74-.07-5.48,0-8.21.08-2.37-.83-3.33-3.29-3.28C1068.94,575,1062.34,575,1055.74,575Z" transform="translate(-796.19 -393.86)"/><path class="cls-3" d="M1097.05,483.41c0,15.57-.07,31.14.07,46.71,0,3.22-.89,4.38-4.22,4.36q-40-.18-80,0c-3.24,0-4.28-1-4.26-4.26q.15-47.08,0-94.17c0-3.08.89-4.11,4-4.05,8.72.16,17.44-.06,26.16.07,2.94,0,4.18-1,3.85-3.89a2.41,2.41,0,0,1,0-.38c.16-10,.16-10,10-10,9.61,0,9.82,0,9.6,9.57-.1,3.94,1.25,4.82,4.9,4.71,8.34-.24,16.7.12,25-.13,3.72-.11,5,.91,4.92,4.78-.2,15.57-.08,31.14-.08,46.71Zm-68.58-.17c0,9.83.11,19.66-.06,29.49-.06,3.25.65,4.62,4.29,4.56,13.44-.21,26.89-.18,40.33,0,3.3,0,3.91-1.26,3.9-4.16q-.14-29.86,0-59.72c0-3.18-1.14-4-4.13-4q-20.16.17-40.33,0c-3,0-4.14.82-4.09,4C1028.57,463.33,1028.46,473.28,1028.47,483.24Z" transform="translate(-796.19 -393.86)"/><path class="cls-3" d="M909.88,608.5c0-15.56.08-31.13-.07-46.69,0-3.45,1.08-4.7,4.51-4.49a102.06,102.06,0,0,0,11.2,0c3.14-.17,4.15,1.13,4.11,4.15-.12,7.85.17,15.7-.09,23.54-.12,3.55,1.15,4.43,4.48,4.44,7.94,0,15.92-.46,23.76,1.73,14.86,4.14,32.1,18.29,30.71,40.37-.5,7.94-.21,15.94,0,23.91.07,3.28-1.1,4.46-4.34,4.28a99.64,99.64,0,0,0-11.2,0c-3.22.19-4-1.21-4-4.17.08-7.34.07-14.7-.2-22-.59-15.59-10.82-25.71-26.38-26.27-3-.11-6,.1-9-.13s-3.66.88-3.64,3.62c.11,12.33,0,24.66.06,37,0,2.86-.06,5.73,0,8.59.09,2.35-.83,3.41-3.26,3.36-4.23-.08-8.48-.15-12.7.05-3.14.15-4.37-1.11-4-4.13a6.26,6.26,0,0,0,0-.75V608.5Z" transform="translate(-796.19 -393.86)"/><path class="cls-3" d="M952.33,432c13.2,0,26.41.08,39.61-.06,3.17,0,4.62.8,4.36,4.19a65.2,65.2,0,0,0,0,8.95c.21,3.29-.8,4.58-4.39,4.47-8.84-.27-17.69,0-26.53-.15-3.15-.06-4,1.08-4,4.11.1,25.15.06,50.3.08,75.45,0,5.43,0,5.43-5.26,5.44-3.49,0-7-.17-10.46,0-3,.16-3.86-1-3.84-3.89.1-14.7,0-29.39,0-44.08,0-4.75-.07-4.79-4.8-4.78-8.35,0-16.69-.07-25,.06-2.73,0-3.83-.87-3.69-3.65a96.83,96.83,0,0,0,0-10.08c-.16-2.9.87-4,3.84-3.92,8.47.15,16.94,0,25.41.11,3.1.05,4.43-.72,4.4-4.16-.09-10.57.05-10.58-10.57-10.58-6.36,0-12.71-.14-19.06.11-3.24.12-4.13-1.16-4-4.12a80.65,80.65,0,0,0,0-9.71c-.22-3.06,1.11-3.81,3.93-3.78C925.68,432.07,939,432,952.33,432Z" transform="translate(-796.19 -393.86)"/><path class="cls-3" d="M978.72,556.59a9.49,9.49,0,0,1,1,.39c4.37,2.37,8.71,4.79,13.1,7.12,1.77.94,1.84,2.12.86,3.63-4.32,6.67-8.67,13.32-12.93,20-1.15,1.82-2.38,2.23-4.3,1.21-4-2.09-7.94-4.13-12-6.05-2-.94-2.14-1.93-1-3.72,4.34-6.81,8.55-13.69,12.84-20.53C976.87,557.77,977.23,556.55,978.72,556.59Z" transform="translate(-796.19 -393.86)"/><path class="cls-1" d="M1055.74,575c6.6,0,13.2.08,19.79,0,2.46,0,3.37.91,3.29,3.28-.11,2.73-.1,5.47,0,8.21.06,2.29-1.08,3-3.22,3-13.45,0-26.89-.08-40.34,0-2.48,0-3.31-1-3.21-3.37a70.71,70.71,0,0,0,0-7.84c-.17-2.72,1-3.37,3.54-3.32,6.73.13,13.45,0,20.18,0Z" transform="translate(-796.19 -393.86)"/><path class="cls-1" d="M1028.47,483.24c0-10,.1-19.91-.07-29.86-.05-3.16,1-4,4.09-4q20.17.23,40.33,0c3,0,4.15.8,4.13,4q-.18,29.85,0,59.72c0,2.9-.6,4.2-3.9,4.16-13.44-.18-26.89-.21-40.33,0-3.64.06-4.35-1.31-4.29-4.56C1028.58,502.9,1028.47,493.07,1028.47,483.24Z" transform="translate(-796.19 -393.86)"/></svg>