<svg xmlns="http://www.w3.org/2000/svg" viewBox="0 0 198 54.77"><defs><style>.cls-1{fill:#fff;}.cls-2{fill:#bf272f;}.cls-3{fill:#060202;}</style></defs><title>logolat</title><g id="Capa_2" data-name="Capa 2"><g id="Capa_3" data-name="Capa 3"><path class="cls-1" d="M198,27.4V52.64c0,1.53-2.74,2.13-9.74,2.13h-178C2.72,54.77,0,54.16,0,52.47q0-25,0-50.09C0,.6,2.67,0,10.62,0H188.29c6.92,0,9.68.61,9.68,2.15q0,12.63,0,25.25Z"/></g><g id="Capa_1-2" data-name="Capa 1"><path class="cls-2" d="M193,27.39v24c0,1.45-2.6,2-9.25,2h-169c-7.12,0-9.7-.57-9.7-2.18Q5,27.43,5,3.65C5,2,7.53,1.38,15.09,1.38H183.78c6.57,0,9.19.58,9.19,2.05q0,12,0,24Z"/><path class="cls-3" d="M184,27.3c0,4,0,8,0,12,0,3.28-1.07,4.56-4.35,4.87-1.91.18-3.85.07-5.78.09-.48,0-.68-.22-.68-.69,0-1.28,0-2.57,0-3.85,0-.55.26-.73.76-.72s1.21,0,1.82,0c1.63-.06,2.24-.52,2.3-2.15.1-2.56,0-5.13.07-7.7,0-.58-.23-.8-.81-.8q-6.3,0-12.59,0c-.9,0-.81.57-.81,1.14,0,4.15,0,8.31,0,12.46,0,2.68.21,2.31-2.28,2.34-.83,0-1.66,0-2.49,0S158,44,158,43.12c0-4.42,0-8.84,0-13.26,0-1.13-.22-1.73-1.47-1.52-.79.13-1.07-.23-1-1,.05-1.06,0-2.12,0-3.18,0-.8.25-1.24,1.1-1.13,1.14.16,1.5-.38,1.37-1.43a6.93,6.93,0,0,1,0-1c0-1.75,0-1.76-1.66-2-.45-.06-.72-.23-.72-.69,0-1.28,0-2.57,0-3.85,0-.85.67-.77,1.23-.78h9.52c1.43,0,1.43,0,1.42-1.46,0-2.86,0-2.86,2.89-2.86,3.12,0,3.15,0,3.14,3.16,0,1,.38,1.2,1.28,1.18,2.57,0,5.14,0,7.71,0,.93,0,1.25.32,1.24,1.26C184,18.76,184,23,184,27.3Zm-12.86-8.72h0c-2,0-4.08,0-6.12,0-.75,0-1.13.18-1.07,1a21,21,0,0,1,0,2.38c0,.71.23,1,1,1q6.12,0,12.24,0c.65,0,1-.22,1-.91s0-1.66,0-2.49-.25-1-1-1C175.13,18.61,173.12,18.58,171.12,18.58Z"/><path class="cls-3" d="M118.06,28.11c0,4.72,0,9.44,0,14.17,0,1-.27,1.32-1.28,1.32q-12.14-.06-24.27,0c-1,0-1.29-.29-1.29-1.3q0-14.28,0-28.56c0-.94.27-1.25,1.22-1.23,2.64.05,5.29,0,7.93,0,.9,0,1.27-.3,1.17-1.18v-.12c0-3,0-3,3-3s3,0,2.91,2.9c0,1.2.38,1.47,1.49,1.43,2.53-.07,5.07,0,7.6,0,1.13,0,1.51.27,1.49,1.45-.06,4.72,0,9.44,0,14.17Zm-20.8-.06c0,3,0,6,0,9,0,1,.19,1.4,1.3,1.38,4.08-.06,8.16-.05,12.23,0,1,0,1.19-.38,1.19-1.26q0-9.06,0-18.12c0-1-.34-1.21-1.25-1.2q-6.12,0-12.23,0c-.93,0-1.26.25-1.24,1.2C97.29,22,97.25,25,97.26,28.05Z"/><path class="cls-3" d="M72.42,13.55c4,0,8,0,12,0,1,0,1.4.24,1.33,1.27a19,19,0,0,0,0,2.72c.06,1-.24,1.39-1.33,1.35-2.68-.08-5.37,0-8.05,0-1,0-1.21.32-1.21,1.24,0,7.63,0,15.26,0,22.89,0,1.65,0,1.65-1.6,1.65-1.06,0-2.12,0-3.17,0s-1.17-.3-1.17-1.18c0-4.46,0-8.91,0-13.37,0-1.44,0-1.45-1.46-1.45-2.53,0-5.06,0-7.6,0-.83,0-1.16-.26-1.12-1.11a28.4,28.4,0,0,0,0-3.06c-.05-.88.27-1.2,1.17-1.19,2.56,0,5.14,0,7.7,0,1,0,1.35-.22,1.34-1.27,0-3.2,0-3.21-3.21-3.21-1.93,0-3.85,0-5.78,0-1,0-1.25-.35-1.21-1.25a24.2,24.2,0,0,0,0-2.95c-.06-.92.34-1.15,1.2-1.15C64.33,13.57,68.37,13.55,72.42,13.55Z"/><path class="cls-3" d="M124.08,28.11c0-4.73,0-9.45,0-14.17,0-1,.33-1.43,1.36-1.36a29.67,29.67,0,0,0,3.4,0c1-.05,1.26.34,1.25,1.26,0,2.38.05,4.76,0,7.14,0,1.07.35,1.34,1.36,1.35a26.9,26.9,0,0,1,7.21.52c4.51,1.26,9.74,5.55,9.32,12.25-.16,2.41-.07,4.83,0,7.25,0,1-.33,1.35-1.32,1.3a29.67,29.67,0,0,0-3.4,0c-1,.06-1.22-.37-1.21-1.26,0-2.23,0-4.46-.06-6.69a7.81,7.81,0,0,0-8-8c-.91,0-1.82,0-2.72,0s-1.11.27-1.11,1.1c0,3.74,0,7.48,0,11.22,0,.87,0,1.74,0,2.61,0,.71-.25,1-1,1-1.28,0-2.57-.05-3.85,0-1,0-1.32-.34-1.21-1.25a1.77,1.77,0,0,0,0-.23v-14Z"/><path class="cls-3" d="M145,12.36a1.44,1.44,0,0,1,.3.12c1.33.72,2.64,1.45,4,2.15.54.29.56.65.26,1.11-1.31,2-2.63,4-3.92,6.07a.85.85,0,0,1-1.3.37c-1.2-.63-2.41-1.25-3.64-1.83-.6-.29-.65-.59-.3-1.13,1.32-2.07,2.6-4.16,3.9-6.23C144.4,12.71,144.51,12.35,145,12.36Z"/></g><g id="Capa_2-2" data-name="Capa 2"><path class="cls-1" d="M33.08,32.38a17.34,17.34,0,0,1,2,0c.84.09,1.09-.27,1.11-1,0-1,.19-2,.21-3.05,0-.65.26-.8.84-.71s1.3.12,1.95.18c1,.1,1.24.5.69,1.26s-.4,1.84-.63,2.75c-.08.36,0,.59.47.59,1.77,0,3.54,0,5.3-.07a6.6,6.6,0,0,1,2.22.56.29.29,0,0,1,.19.44c-.64,1.41-.39,2.92-.54,4.39a42,42,0,0,1-1,6.7c-.76,2.79-2.18,3.73-5.07,3.41-1-.11-1.89-.3-2.84-.43-.5-.06-.69-.28-.64-.79a6,6,0,0,0-.11-1.94c-.14-.56.14-.55.55-.45a25,25,0,0,0,3.66.62A1.14,1.14,0,0,0,42.82,44a33.91,33.91,0,0,0,1.11-8.08c0-.44-.26-.5-.6-.5-1.37,0-2.73,0-4.09,0-.56,0-.65.34-.75.75a24.36,24.36,0,0,1-2.58,6.65A17.73,17.73,0,0,1,31.7,47.7c-.47.38-.8.55-1.28,0a5.3,5.3,0,0,0-1.31-1c-.44-.27-.49-.45,0-.78A16.56,16.56,0,0,0,35.2,36.6c.34-1.22.35-1.22-1-1.22s-2.42,0-3.63,0c-.55,0-.74-.17-.75-.75-.05-2.27-.07-2.27,2.18-2.27Z"/><path class="cls-1" d="M35.69,15.16c0,3.31,0,6.41,0,9.51,0,.84-.21,1.11-1.07,1.09-2.08-.05-2.08,0-2.08-2.11,0-5.85,0-11.71,0-17.56,0-.74.18-1,.93-.9s1.3.08,2,.13c.9.07,1.12.36.7,1.17-.85,1.62-.23,3.34-.42,5,0,.35.28.44.54.55,2.47,1,4.9,2.14,7.27,3.4.47.26.76.47.36,1s-.71,1.67-1.32,1.95-1.31-.59-2-.91C39,16.78,37.44,16,35.69,15.16Z"/></g></g></svg>