<svg id="Capa_1" data-name="Capa 1" xmlns="http://www.w3.org/2000/svg" viewBox="0 0 120 50"><defs><style>.cls-1{fill:#ea1525;}</style></defs><title>COMICS</title><rect class="cls-1" width="120" height="50"/><path d="M38.26,28.64a.72.72,0,0,1-.2.39,5.59,5.59,0,0,1-4.51,2,6,6,0,0,1-4.68-2,6.88,6.88,0,0,1-1.75-4.81,7,7,0,0,1,1.71-4.77,5.74,5.74,0,0,1,4.54-2.05,6,6,0,0,1,4.69,1.84.57.57,0,0,1,.19.36,5.54,5.54,0,0,1-.64,1.3,7.74,7.74,0,0,1-.81,1.27.25.25,0,0,1-.19.07,2.45,2.45,0,0,1-.46-.37,5.19,5.19,0,0,0-1-.69,3.24,3.24,0,0,0-1.51-.37,2.66,2.66,0,0,0-2.18,1,3.67,3.67,0,0,0-.74,2.33,3.73,3.73,0,0,0,.74,2.35,2.65,2.65,0,0,0,2.18,1,3.49,3.49,0,0,0,1.52-.35,4.52,4.52,0,0,0,1-.65,2.11,2.11,0,0,1,.46-.35.24.24,0,0,1,.18.1c.1.11.37.5.8,1.16A7.38,7.38,0,0,1,38.26,28.64Z"/><path d="M52.09,24.26a6.78,6.78,0,0,1-1.84,4.84,6.68,6.68,0,0,1-9.49,0,6.75,6.75,0,0,1-1.84-4.82,6.79,6.79,0,0,1,1.84-4.83,6.59,6.59,0,0,1,9.48,0A6.83,6.83,0,0,1,52.09,24.26Zm-3.5,0a3.45,3.45,0,0,0-.84-2.35,2.91,2.91,0,0,0-4.45,0,3.67,3.67,0,0,0-.06,4.7,3,3,0,0,0,4.48-.06A3.4,3.4,0,0,0,48.59,24.24Z"/><path d="M67.25,30.45c0,.19-.09.28-.27.28H63.71c-.18,0-.27-.11-.27-.32,0-.62,0-1.56.07-2.8s.07-2.18.07-2.8c0-.18,0-.28-.08-.29a26.62,26.62,0,0,0-1.24,2.86l-1.33,3.28a.41.41,0,0,1-.23.25h-.37c-.32,0-.51-.07-.58-.19-.33-.68-.77-1.66-1.31-3s-1-2.35-1.3-3a.24.24,0,0,0-.08-.1A.37.37,0,0,0,57,25c0,.61,0,1.51,0,2.72s0,2.11,0,2.72c0,.21-.08.32-.25.32H53.74c-.12,0-.2,0-.23-.06a.37.37,0,0,1,0-.21c0-.67,0-1.68.1-3s.1-2.36.1-3,0-2.05-.1-4c0-.51,0-1.27-.08-2.28V18q0-.18.39-.18l1.52,0,1.53,0c.07,0,.16.13.28.39L59.9,24q.29.6.48.6c.07,0,.22-.23.44-.69q.93-1.94,2.76-5.85c.11-.24.22-.36.34-.36l.81,0,.82,0c.15,0,.39,0,.71-.05s.55,0,.7,0,.28.08.28.23c0,.72,0,1.81-.08,3.25s-.08,2.53-.08,3.26,0,1.68.09,3S67.25,29.78,67.25,30.45Z"/><path d="M72.72,23.9c0,.73,0,1.82.06,3.28s0,2.56,0,3.28c0,.13,0,.2-.08.23l-.24,0a13.48,13.48,0,0,1-1.61.08,11.37,11.37,0,0,1-1.72-.08c-.18,0-.27-.13-.27-.28,0,.09,0-.45.09-1.63.11-2.5.16-4.14.16-4.92s0-1.65-.06-3S69,18.63,69,18c0-.14.07-.2.22-.2s.47,0,.86,0l.86,0,.85,0c.37,0,.65,0,.85,0s.26.06.26.2c0,.66,0,1.65-.1,3S72.72,23.24,72.72,23.9Z"/><path d="M85.4,28.64a.69.69,0,0,1-.19.39,5.61,5.61,0,0,1-4.52,2,6,6,0,0,1-4.68-2,6.88,6.88,0,0,1-1.75-4.81A7,7,0,0,1,76,19.51a5.75,5.75,0,0,1,4.54-2.05,6.08,6.08,0,0,1,4.7,1.84.6.6,0,0,1,.18.36,5.54,5.54,0,0,1-.64,1.3,7.74,7.74,0,0,1-.81,1.27.25.25,0,0,1-.19.07,2.9,2.9,0,0,1-.46-.37,5.19,5.19,0,0,0-1-.69,3.24,3.24,0,0,0-1.51-.37,2.62,2.62,0,0,0-2.17,1,3.62,3.62,0,0,0-.75,2.33,3.67,3.67,0,0,0,.75,2.35,2.61,2.61,0,0,0,2.17,1,3.49,3.49,0,0,0,1.52-.35,4.52,4.52,0,0,0,1-.65,2.85,2.85,0,0,1,.46-.35.24.24,0,0,1,.18.1c.1.11.37.5.81,1.16A6.77,6.77,0,0,1,85.4,28.64Z"/><path d="M92.7,26.48a4.11,4.11,0,0,1-1.58,3.22,6.67,6.67,0,0,1-3.37,1.5h-.12c-.14,0-.46-.43-.94-1.3A5.45,5.45,0,0,1,86,28.33c0-.07,0-.11.13-.13a9.53,9.53,0,0,0,1.78-.52,1.52,1.52,0,0,0,1-1.42,2.17,2.17,0,0,0-.63-1.34c-.73-.84-1.12-1.3-1.18-1.4a3.72,3.72,0,0,1-.64-2.12,3.34,3.34,0,0,1,1.56-2.81,6.93,6.93,0,0,1,3.14-1.2h.15c.1,0,.17.07.22.22.16.45.54,1.26,1.12,2.44a.23.23,0,0,1,0,.09c0,.11-.06.16-.17.16l-.25,0-.26,0a2.13,2.13,0,0,0-1.17.31,1.08,1.08,0,0,0-.6,1,2.37,2.37,0,0,0,.67,1.38l1.23,1.56A3.74,3.74,0,0,1,92.7,26.48Z"/></svg>