<svg id="Capa_1" data-name="Capa 1" xmlns="http://www.w3.org/2000/svg" viewBox="0 0 120 50"><defs><style>.cls-1{fill:#ea1525;}</style></defs><title>COMISIONES</title><rect class="cls-1" width="120" height="50"/><path d="M17.92,28.64a.69.69,0,0,1-.19.39,5.6,5.6,0,0,1-4.52,2,6,6,0,0,1-4.68-2,6.87,6.87,0,0,1-1.74-4.81A7,7,0,0,1,8.5,19.51,5.73,5.73,0,0,1,13,17.46a6.07,6.07,0,0,1,4.7,1.84.6.6,0,0,1,.18.36,5.54,5.54,0,0,1-.64,1.3,7.74,7.74,0,0,1-.81,1.27.24.24,0,0,1-.18.07,2.13,2.13,0,0,1-.46-.37,5.53,5.53,0,0,0-1-.69,3.31,3.31,0,0,0-1.52-.37,2.64,2.64,0,0,0-2.17,1,3.62,3.62,0,0,0-.75,2.33,3.67,3.67,0,0,0,.75,2.35,2.63,2.63,0,0,0,2.17,1,3.5,3.5,0,0,0,1.53-.35,5.08,5.08,0,0,0,1-.65,2.58,2.58,0,0,1,.45-.35.24.24,0,0,1,.18.1c.1.11.37.5.81,1.16A6.77,6.77,0,0,1,17.92,28.64Z"/><path d="M31.76,24.26a6.82,6.82,0,0,1-1.84,4.84,6.3,6.3,0,0,1-4.75,2,6.22,6.22,0,0,1-4.74-2,6.75,6.75,0,0,1-1.85-4.82,6.79,6.79,0,0,1,1.85-4.83,6.2,6.2,0,0,1,4.74-2,6.23,6.23,0,0,1,4.73,2A6.79,6.79,0,0,1,31.76,24.26Zm-3.51,0a3.45,3.45,0,0,0-.84-2.35,2.91,2.91,0,0,0-4.45,0,3.67,3.67,0,0,0-.06,4.7,2.88,2.88,0,0,0,2.27,1,2.84,2.84,0,0,0,2.22-1.05A3.39,3.39,0,0,0,28.25,24.24Z"/><path d="M46.91,30.45c0,.19-.09.28-.26.28H43.37c-.17,0-.26-.11-.26-.32,0-.62,0-1.56.07-2.8s.07-2.18.07-2.8c0-.18,0-.28-.09-.29a26.62,26.62,0,0,0-1.24,2.86c-.44,1.09-.88,2.19-1.33,3.28a.41.41,0,0,1-.23.25H40c-.32,0-.51-.07-.57-.19-.33-.68-.77-1.66-1.31-3s-1-2.35-1.31-3a.24.24,0,0,0-.08-.1.43.43,0,0,0-.06.26c0,.61,0,1.51,0,2.72s0,2.11,0,2.72c0,.21-.09.32-.26.32H33.4c-.12,0-.2,0-.22-.06a.36.36,0,0,1,0-.21c0-.67,0-1.68.1-3s.1-2.36.1-3,0-2.05-.09-4q0-.77-.09-2.28V18q0-.18.39-.18l1.53,0,1.52,0c.07,0,.17.13.29.39L39.57,24q.28.6.48.6c.07,0,.21-.23.43-.69.62-1.29,1.55-3.24,2.77-5.85.1-.24.21-.36.34-.36l.81,0,.81,0c.16,0,.39,0,.71-.05s.55,0,.71,0,.27.08.27.23c0,.72,0,1.81-.07,3.25s-.08,2.53-.08,3.26,0,1.68.08,3S46.91,29.78,46.91,30.45Z"/><path d="M52.38,23.9c0,.73,0,1.82.06,3.28s.06,2.56.06,3.28c0,.13,0,.2-.09.23l-.24,0a13.36,13.36,0,0,1-1.61.08,11.2,11.2,0,0,1-1.71-.08c-.18,0-.27-.13-.27-.28,0,.09,0-.45.08-1.63.11-2.5.17-4.14.17-4.92s0-1.65-.07-3-.06-2.31-.06-3c0-.14.07-.2.21-.2s.48,0,.86,0l.87,0,.84,0c.38,0,.66,0,.85,0s.27.06.27.2c0,.66,0,1.65-.11,3S52.38,23.24,52.38,23.9Z"/><path d="M60.57,26.48A4.08,4.08,0,0,1,59,29.7a6.67,6.67,0,0,1-3.37,1.5H55.5c-.14,0-.46-.43-.94-1.3a5.45,5.45,0,0,1-.73-1.58c0-.07,0-.11.14-.13a9.6,9.6,0,0,0,1.77-.52,1.52,1.52,0,0,0,1-1.42,2.17,2.17,0,0,0-.63-1.34c-.72-.84-1.12-1.3-1.18-1.4a3.72,3.72,0,0,1-.64-2.12,3.34,3.34,0,0,1,1.56-2.81A6.93,6.93,0,0,1,59,17.39h.15c.1,0,.17.07.23.22.16.45.53,1.26,1.11,2.44a.23.23,0,0,1,0,.09.14.14,0,0,1-.16.16l-.25,0-.27,0a2.15,2.15,0,0,0-1.17.31,1.08,1.08,0,0,0-.6,1,2.37,2.37,0,0,0,.67,1.38l1.23,1.56A3.74,3.74,0,0,1,60.57,26.48Z"/><path d="M65.86,23.9c0,.73,0,1.82.06,3.28s0,2.56,0,3.28c0,.13,0,.2-.08.23l-.24,0a13.48,13.48,0,0,1-1.61.08,11.37,11.37,0,0,1-1.72-.08c-.18,0-.27-.13-.27-.28,0,.09,0-.45.08-1.63.12-2.5.17-4.14.17-4.92s0-1.65-.06-3-.07-2.31-.07-3c0-.14.07-.2.21-.2s.48,0,.87,0l.86,0,.85,0c.37,0,.65,0,.84,0s.27.06.27.2c0,.66,0,1.65-.1,3S65.86,23.24,65.86,23.9Z"/><path d="M80.58,24.26a6.78,6.78,0,0,1-1.84,4.84,6.68,6.68,0,0,1-9.49,0,6.75,6.75,0,0,1-1.85-4.82,6.79,6.79,0,0,1,1.85-4.83,6.58,6.58,0,0,1,9.47,0A6.79,6.79,0,0,1,80.58,24.26Zm-3.5,0a3.45,3.45,0,0,0-.84-2.35,2.92,2.92,0,0,0-4.46,0,3.5,3.5,0,0,0-.87,2.34,3.44,3.44,0,0,0,.82,2.36,3,3,0,0,0,4.48-.06A3.4,3.4,0,0,0,77.08,24.24Z"/><path d="M94.32,18.05c0,.7,0,1.76-.08,3.17s-.09,2.46-.09,3.17v6.09c0,.17-.09.25-.27.25l-.67,0-.67,0c-.16,0-.4,0-.72,0l-.72,0c-.11,0-.24-.1-.4-.3q-.66-.9-3-4c-.43-.58-1.08-1.42-1.94-2.54a.61.61,0,0,0-.14-.11.27.27,0,0,0-.08.21q0,1.07.06,3.21c0,1.43.06,2.5.06,3.22,0,.21-.08.32-.25.32H82.23c-.18,0-.27-.09-.27-.28,0-.67,0-1.67.1-3s.09-2.35.09-3,0-1.77-.09-3.18S82,18.76,82,18.06c0-.13.12-.2.36-.2s.8,0,1.32-.08c.12,0,.37-.05.73-.12a5,5,0,0,1,.73-.08c.07,0,.19.11.34.32l3.45,4.72c.31.42.77,1.05,1.39,1.86.16.2.29.29.4.29s.12-.24.12-.72c0-.65,0-1.62-.11-2.92s-.1-2.28-.1-2.93c0-.23.06-.34.19-.34.37,0,.93,0,1.68-.05s1.3,0,1.67,0C94.27,17.77,94.32,17.86,94.32,18.05Z"/><path d="M105.51,27.86a13.5,13.5,0,0,1-.16,1.46,5.09,5.09,0,0,1-.3,1.37.33.33,0,0,1-.3.18l-.28,0c-.45-.06-1.76-.09-3.94-.09H96.31q-.3,0-.3-.27c0-.69,0-1.72.11-3.11s.12-2.42.12-3.11,0-2-.11-3.92c0-.5-.06-1.23-.11-2.21V18q0-.21.24-.21l2,0c.92,0,1.6,0,2.06,0s1.13,0,2,0l2,0c.33,0,.51.12.56.36s.08.57.14,1.29.1,1.15.1,1.3-.06.2-.18.2h-.2c-1.64-.14-3.11-.21-4.42-.21q-.48,0-.6.24a3.07,3.07,0,0,0,0,.71,1.33,1.33,0,0,0,.18.83.8.8,0,0,0,.6.17h.81c.77,0,1.56,0,2.35-.07l.51,0a3.62,3.62,0,0,1,.5,0c.15,0,.22.07.22.21,0-.13,0,.34-.16,1.41-.05.5-.08,1-.08,1.48,0,.13-.09.19-.27.19l-.83-.09q-.52-.06-2.4-.06h-1c-.25,0-.4.06-.44.19s0,.22,0,.57a2.71,2.71,0,0,0,.09.9c.1.24.5.38,1.18.42h1.35c.33,0,.81,0,1.46-.09s1.12-.09,1.44-.09C105.44,27.52,105.51,27.64,105.51,27.86Z"/><path d="M113,26.48a4.11,4.11,0,0,1-1.58,3.22,6.71,6.71,0,0,1-3.38,1.5H108c-.14,0-.45-.43-.94-1.3a5.77,5.77,0,0,1-.73-1.58c0-.07,0-.11.14-.13a9.35,9.35,0,0,0,1.77-.52,1.53,1.53,0,0,0,1-1.42,2.17,2.17,0,0,0-.63-1.34c-.73-.84-1.12-1.3-1.19-1.4a3.79,3.79,0,0,1-.63-2.12,3.34,3.34,0,0,1,1.56-2.81,6.89,6.89,0,0,1,3.13-1.2h.16c.09,0,.16.07.22.22A26.33,26.33,0,0,0,112.91,20a.23.23,0,0,1,0,.09c0,.11-.06.16-.17.16l-.25,0-.27,0a2.12,2.12,0,0,0-1.16.31,1.08,1.08,0,0,0-.6,1,2.41,2.41,0,0,0,.66,1.38l1.23,1.56A3.67,3.67,0,0,1,113,26.48Z"/></svg>